<svg xmlns="http://www.w3.org/2000/svg" width="78" height="46" viewBox="0 0 78 46">
    <g fill="none" fill-rule="evenodd" stroke="#000" stroke-linecap="round">
        <path stroke-width="4" d="M17.108 20.965c-2.244 1.718-2.219 5.1.026 6.814 5.998 4.582 13.418 7.294 21.455 7.294 9.869 0 18.81-4.089 25.326-10.71a36.354 36.354 0 0 0-8.505-6.426 35.041 35.041 0 0 0-16.821-4.286 35.44 35.44 0 0 0-4.588.298c-6.277.823-12.05 3.31-16.893 7.016z"/>
        <path stroke-width="2" d="M30.92 14.928a23.728 23.728 0 0 1 1.942 9.434c0 3.288-.667 6.42-1.87 9.27"/>
        <path stroke-width="4" d="M63.915 24.474s4.425-4.575 9.876-8.187c.59-.39 1.377.021 1.377.728V31.71c0 .708-.79 1.12-1.379.726-5.436-3.633-9.874-8.176-9.874-8.176"/>
        <path stroke-width="2" d="M28.61 23.457a2.31 2.31 0 1 1-4.62 0 2.31 2.31 0 0 1 4.62 0z"/>
        <path stroke-linejoin="round" stroke-width="2" d="M36.605 22.347s.349-.09.973-.212"/>
        <path stroke-dasharray="2.065,4.13" stroke-linejoin="round" stroke-width="2" d="M41.667 21.58c2.844-.23 6.558-.21 10.255.73"/>
        <path stroke-linejoin="round" stroke-width="2" d="M53.904 22.907c.314.11.626.23.937.355"/>
        <path stroke-width="2" d="M13.21 39.067l2.227-.93a6.07 6.07 0 1 1-12.14 0v-11.29"/>
        <path stroke-width="2" d="M5.596 24.548a2.298 2.298 0 1 1-4.596 0 2.298 2.298 0 0 1 4.596 0zM3.298 1v2"/>
        <path stroke-dasharray="3.45,3.45" stroke-width="2" d="M3.298 6.45v12.075"/>
        <path stroke-width="2" d="M3.298 20.25v2"/>
    </g>
</svg>
