<svg xmlns="http://www.w3.org/2000/svg" width="64" height="64" viewBox="0 0 64 64">
    <g fill="none" fill-rule="evenodd">
        <path d="M0 0h64v64H0z"/>
        <path stroke="#000" stroke-linecap="round" stroke-linejoin="round" stroke-width="3.2" d="M18.855 51.316a20.01 20.01 0 0 1-.263-3.25c0-6.68 3.258-12.41 7.902-14.858M36.246 33.045c4.815 2.35 8.224 8.19 8.224 15.021 0 .992-.072 1.962-.21 2.905M13 52.787h37.843"/>
        <path stroke="#000" stroke-linecap="round" stroke-linejoin="round" stroke-width="1.6" d="M31.531 34.419v5.805M31.531 44.165v1.69"/>
        <path fill="#000" d="M24.185 44.165l.409 7.022a.802.802 0 1 1-1.6 0l.408-7.022a.393.393 0 0 1 .783 0M39.701 43.948l.367 7.022a.801.801 0 1 1-1.6 0l.368-7.022a.433.433 0 0 1 .865 0"/>
        <path stroke="#000" stroke-linecap="round" stroke-linejoin="round" stroke-width="2.4" d="M39.268 25.566c0 4.793-3.674 8.679-8.208 8.679-4.532 0-8.208-3.886-8.208-8.679 0-4.792 3.676-8.678 8.208-8.678 4.534 0 8.208 3.886 8.208 8.678z"/>
        <path fill="#FFF" d="M39.262 19.994c0 2.425-3.674 4.39-8.208 4.39-4.533 0-8.208-1.965-8.208-4.39"/>
        <path stroke="#000" stroke-linecap="round" stroke-linejoin="round" stroke-width="2.4" d="M39.262 19.994c0 2.425-3.674 4.39-8.208 4.39-4.533 0-8.208-1.965-8.208-4.39"/>
        <path fill="#FFF" d="M22.865 19.997l-1.564-2.669a2.26 2.26 0 0 1 1.5-2.95l2.322-.665c.452-.13.885-.316 1.291-.555l1.38-.812a6.858 6.858 0 0 1 6.653-.166l1.747.913c.44.23.908.399 1.393.505l1.58.345a2.26 2.26 0 0 1 1.646 2.97l-1.532 3.081a40.393 40.393 0 0 0-15.507-.165l-.909.168z"/>
        <path stroke="#000" stroke-linecap="round" stroke-linejoin="round" stroke-width="2.4" d="M22.865 19.997l-1.564-2.669a2.26 2.26 0 0 1 1.5-2.95l2.322-.665c.452-.13.885-.316 1.291-.555l1.38-.812a6.858 6.858 0 0 1 6.653-.166l1.747.913c.44.23.908.399 1.393.505l1.58.345a2.26 2.26 0 0 1 1.646 2.97l-1.532 3.081a40.393 40.393 0 0 0-15.507-.165l-.909.168z"/>
        <path fill="#000" d="M32.58 15.552a1.526 1.526 0 1 1-3.052 0 1.526 1.526 0 0 1 3.052 0"/>
    </g>
</svg>
