<svg xmlns="http://www.w3.org/2000/svg" width="79" height="64" viewBox="0 0 79 64">
    <g fill="none" fill-rule="evenodd">
        <path fill="#000" d="M6.624 11.668c6.23 1.268 12.069 3.498 17.724 6.252a84.888 84.888 0 0 1 15.906 10.147c4.938 3.96 9.407 8.532 13.367 13.526a91.578 91.578 0 0 1 10.11 16.24 3.504 3.504 0 1 1-6.393 2.858l-.007-.017A85.3 85.3 0 0 0 48.985 45c-3.368-4.895-7.259-9.468-11.671-13.523a80.987 80.987 0 0 0-14.498-10.69c-5.213-3.002-10.829-5.575-16.587-7.157l-.068-.018a.998.998 0 0 1 .463-1.943"/>
        <path fill="#000" d="M17.64 15.16a2.512 2.512 0 1 1-5.025 0 2.512 2.512 0 0 1 5.025 0M34.28 23.527a3.343 3.343 0 1 1-6.685 0 3.343 3.343 0 0 1 6.685 0M48.918 35.079a4.15 4.15 0 0 1-4.151 4.15 4.15 4.15 0 1 1 4.15-4.15"/>
        <path stroke="#000" stroke-width="4" d="M44.148 51.69a9.34 9.34 0 1 1-18.68 0 9.34 9.34 0 0 1 18.68 0zM48.918 40.2l-6.727 5.785"/>
        <path stroke="#000" stroke-linecap="round" stroke-width="2" d="M33.244 48.732l-5.65-10.688"/>
        <path stroke="#000" stroke-linecap="round" d="M6.419 12.637c-.273.191-.54.393-.797.603"/>
        <path stroke="#000" stroke-dasharray="1.992,3.983" stroke-linecap="round" d="M2.93 16.158a13.83 13.83 0 0 0-2.376 9.075c.589 6.815 6.27 12.272 13.1 12.612a13.83 13.83 0 0 0 6.85-1.414c5.689-2.816 8.447-9.407 6.964-15.58l-1.314-5.471C24.862 10 27.26 4.266 32.203 1.785A12.103 12.103 0 0 1 37.647.5c5.87 0 10.769 4.165 11.902 9.7.247 1.208.246 2.453.119 3.679l-.266 2.564c-.128 1.226-.13 2.47.118 3.678 1.133 5.536 6.03 9.7 11.902 9.7 5.685 0 10.456-3.903 11.782-9.176"/>
        <path stroke="#000" stroke-linecap="round" d="M73.53 18.671c.027-.329.041-.662.041-.999"/>
        <path fill="#000" d="M73.242 16.535a.642.642 0 1 1 0 0m-1.712-.485a1.663 1.663 0 0 0 1.807 1.499 1.662 1.662 0 0 0 1.5-1.806 1.664 1.664 0 0 0-1.246-1.454l-.268-2.385a1.608 1.608 0 0 1 2.6-1.434c.336.267.547.649.595 1.083l.036.288-.392.044a.15.15 0 0 0-.077.267l1.77 1.413a.15.15 0 0 0 .242-.134l-.147-1.322h.003l-.086-.714a2.95 2.95 0 0 0-1.097-1.987 2.941 2.941 0 0 0-2.18-.63 2.969 2.969 0 0 0-2.616 3.278l.277 2.468a1.658 1.658 0 0 0-.72 1.526"/>
        <path stroke="#000" stroke-linecap="round" stroke-width="2" d="M38.155 51.69a3.347 3.347 0 1 1-6.694.002 3.347 3.347 0 0 1 6.694-.002zM29.168 38.044a1.574 1.574 0 1 1-3.148.001 1.574 1.574 0 0 1 3.148 0z"/>
    </g>
</svg>
