<svg xmlns="http://www.w3.org/2000/svg" width="20" height="20" viewBox="0 0 20 20">
    <g fill="none" fill-rule="evenodd">
        <path d="M0 0h20v20H0z"/>
        <path fill="#000" d="M16.419 11.679L12.282 4.78c-.545-.906-1.376-1.424-2.282-1.424-.906 0-1.738.518-2.282 1.422l-4.137 6.9c-.55.917-.611 1.893-.165 2.68C3.86 15.149 4.73 15.6 5.8 15.6h8.4c1.07 0 1.939-.452 2.384-1.239.446-.788.385-1.765-.164-2.682h-.001zM10 13.184A1.086 1.086 0 0 1 8.915 12.1a1.086 1.086 0 0 1 2.17 0c0 .598-.487 1.085-1.085 1.085v-.001zm1.143-5.196l-.98 2.427a.174.174 0 1 1-.323 0l-.973-2.407a1.245 1.245 0 0 1-.091-.459c0-.675.55-1.225 1.225-1.225a1.226 1.226 0 0 1 1.143 1.663z"/>
    </g>
</svg>
