<svg xmlns="http://www.w3.org/2000/svg" width="24" height="24" viewBox="0 0 24 24">
    <g fill="none" fill-rule="evenodd">
        <circle cx="12" cy="12" r="12" fill="#F9B201"/>
        <path fill="#FFF" fill-rule="nonzero" d="M6.034 11.147l2.565 2.345-.713 3.269c-.071.426.071.852.428 1.065a.81.81 0 0 0 .57.213c.142 0 .285 0 .427-.07 0 0 .071 0 .071-.072l2.922-1.634 2.921 1.634s.071 0 .071.071c.357.143.784.143 1.069-.07.356-.214.499-.64.428-1.066l-.713-3.269c.285-.213.713-.64 1.14-1.066l1.354-1.208.071-.07a.99.99 0 0 0 .214-1.066c-.143-.356-.428-.64-.855-.71h-.071l-3.35-.356-1.353-3.055s0-.071-.071-.071c-.071-.498-.428-.711-.784-.711-.356 0-.712.213-.926.568 0 0 0 .071-.071.071l-1.354 3.056-3.349.355h-.071a1.226 1.226 0 0 0-.855.71c-.071.427 0 .853.285 1.137z"/>
    </g>
</svg>
