<svg xmlns="http://www.w3.org/2000/svg" width="24" height="24" viewBox="0 0 24 24">
    <g fill="none" fill-rule="evenodd">
        <circle cx="12" cy="12" r="12" fill="#1673D9"/>
        <path fill="#FFF" d="M9.186 18.548s-.62-.09-1.369-.492c-.141-.076-.02 1.045-.166.944-.932-.65-.747-1.576-.747-1.576S5.25 16.267 5.25 13.37c0 0-.03-1.354 1.044-2.74.838-1.08 1.192-.902 1.848-1.745.56-.719.512-2.706.486-3.277a.108.108 0 0 1 .14-.108c.348.114 1.224.44 1.82.977.769.694.954 1.445.954 1.445s1.01-.105 1.368-.12c.373-.015 1.375.06 1.375.06s2.02-1.229 3.22-1.806c.896-.432 1.87-.922 1.968-.783.182.256-.577.593-1.61 1.324-.763.54-2.127 1.543-2.833 2.302-.227.245-.507.829-.507.829s.895.06 1.312.361c.418.301.358.662.358.662s-1.193-.06-1.67.12c-.477.181-.712.367-1.073.603-1.139.744-2.743 1.204-2.743 1.204s0 .602-.298 1.144c-.299.541-.716.963-.895.963-.179 0 .12-.542.239-.903s.119-.662.119-.662-1.074.541-1.372 1.505a2.224 2.224 0 0 0 .835 2.588s.12-.843.775-1.565c.656-.722 1.491-1.445 1.61-1.324.12.12-1.775 2.068-.894 3.853 1.086 2.2 2.862 2.408 2.743 2.648-.12.241-2.1-.138-2.982-.722-.939-.622-1.401-1.656-1.401-1.656"/>
    </g>
</svg>
