<svg xmlns="http://www.w3.org/2000/svg" width="20" height="22" viewBox="0 0 20 22">
    <g fill="none" fill-rule="evenodd" opacity=".3">
        <path d="M-2-1h24v24H-2z"/>
        <path fill="#000" fill-rule="nonzero" d="M18 20c-1.39 0-2.78-.47-4-1.32-2.44 1.71-5.56 1.71-8 0C4.78 19.53 3.39 20 2 20H0v2h2c1.38 0 2.74-.35 4-.99a8.752 8.752 0 0 0 8 0c1.26.65 2.62.99 4 .99h2v-2h-2zM1.95 18H2c1.6 0 3.02-.88 4-2 .98 1.12 2.4 2 4 2s3.02-.88 4-2c.98 1.12 2.4 2 4 2h.05l1.89-6.68c.08-.26.06-.54-.06-.78a.997.997 0 0 0-.6-.5L18 9.62V5c0-1.1-.9-2-2-2h-3V0H7v3H4c-1.1 0-2 .9-2 2v4.62l-1.29.42a1.007 1.007 0 0 0-.66 1.28L1.95 18zM4 5h12v3.97L10 7 4 8.97V5z"/>
    </g>
</svg>
