<svg xmlns="http://www.w3.org/2000/svg" width="24" height="24" viewBox="0 0 24 24">
    <g fill="none" fill-rule="evenodd">
        <path d="M0 0h24v24H0z"/>
        <path fill="#000" d="M19.757 12.924a.406.406 0 0 1-.45.245 36.921 36.921 0 0 0-3.667-.537c-.791-.068-1.583-.11-2.377-.136-.294.541-.747.896-1.264.896-.514 0-.97-.354-1.262-.896-.826.028-1.654.074-2.478.147-1.227.118-2.446.31-3.663.556a.403.403 0 0 1-.475-.318.412.412 0 0 1 .238-.458c1.195-.508 2.456-.835 3.73-1.06.762-.14 1.535-.223 2.307-.275.004-1.263.72-2.286 1.603-2.286.885 0 1.6 1.023 1.604 2.286.738.05 1.474.13 2.203.259 1.274.22 2.536.541 3.734 1.045a.41.41 0 0 1 .217.532m-7.758 5.858c-3.591 0-6.29-1.479-6.425-2.843a35.682 35.682 0 0 1 12.851 0c-.133 1.364-2.833 2.843-6.426 2.843M21.477 8.46s-1.294-.388-2.056-.778c-.996-.51-2.648-2.082-3.92-3.322-.636-.619-1.419-1.075-2.285-1.242a6.373 6.373 0 0 0-1.782-.092c-1.167.104-2.216.742-3 1.623-.698.784-1.861 1.9-3.538 2.904a7.674 7.674 0 0 1-2.374.907c-1.333.636-1.898 2.25-1.259 3.594l.249.36c.664.967 1.591 2.879 1.886 3.929C4.122 18.923 7.441 21 12 21c4.56 0 7.885-2.075 8.603-4.658.279-1.008 1.142-2.81 1.791-3.777l.343-.512c.64-1.344.075-2.958-1.259-3.594"/>
    </g>
</svg>
