<svg xmlns="http://www.w3.org/2000/svg" width="24" height="24" viewBox="0 0 24 24">
    <g fill="none" fill-rule="evenodd">
        <path d="M0 0h24v24H0z"/>
        <path fill="#000" d="M12 1c6.09 0 11 4.91 11 11s-4.91 11-11 11S1 18.09 1 12 5.91 1 12 1zm8.741 7.464c-.491-1.178-1.13-2.21-2.062-3.143-.933-.933-2.014-1.571-3.192-2.062l-.933 2.995a6.015 6.015 0 0 1 1.866 1.277c.54.54 1.03 1.179 1.326 1.866l2.995-.933zM12 16.714a4.716 4.716 0 0 0 0-9.428 4.716 4.716 0 0 0 0 9.428zM5.321 5.321c-.933.933-1.571 2.014-2.062 3.192l2.995.933A6.015 6.015 0 0 1 7.531 7.58c.54-.54 1.179-1.03 1.866-1.326L8.464 3.26c-1.178.491-2.21 1.13-3.143 2.062zM3.26 15.536c.491 1.178 1.13 2.21 2.062 3.143.933.933 2.014 1.571 3.192 2.062l.933-2.995a6.015 6.015 0 0 1-1.866-1.277c-.54-.54-1.03-1.179-1.326-1.866l-2.995.933zm15.42 3.143c.933-.933 1.571-2.014 2.062-3.192l-2.995-.933a6.015 6.015 0 0 1-1.277 1.866c-.54.54-1.179 1.03-1.866 1.326l.933 2.995c1.178-.491 2.21-1.13 3.143-2.062z"/>
    </g>
</svg>
