<svg xmlns="http://www.w3.org/2000/svg" width="78" height="78" viewBox="0 0 78 78">
    <path fill="#4DB67D" fill-rule="nonzero" d="M65.203 30.773c0-.947-.305-1.726-.914-2.335l-4.621-4.57c-.643-.644-1.405-.966-2.285-.966-.88 0-1.642.322-2.285.965l-20.72 20.668L22.903 33.06c-.643-.644-1.405-.965-2.285-.965-.88 0-1.642.321-2.285.965l-4.621 4.57c-.61.61-.914 1.388-.914 2.336 0 .914.305 1.676.914 2.285l18.383 18.383c.643.643 1.405.965 2.285.965.914 0 1.693-.322 2.336-.965l27.574-27.574c.61-.61.914-1.371.914-2.286zM78 39c0 7.076-1.743 13.6-5.23 19.576-3.487 5.975-8.219 10.707-14.194 14.194C52.601 76.257 46.076 78 39 78c-7.076 0-13.6-1.743-19.576-5.23C13.449 69.283 8.717 64.55 5.23 58.576 1.743 52.601 0 46.076 0 39c0-7.076 1.743-13.6 5.23-19.576C8.717 13.449 13.45 8.717 19.424 5.23 25.399 1.743 31.924 0 39 0c7.076 0 13.6 1.743 19.576 5.23 5.975 3.487 10.707 8.219 14.194 14.194C76.257 25.399 78 31.924 78 39z"/>
</svg>
