<svg xmlns="http://www.w3.org/2000/svg" width="24" height="24" viewBox="0 0 24 24">
    <g fill="none" fill-rule="evenodd">
        <circle cx="12" cy="12" r="12" fill="#4DB67D"/>
        <path fill="#FFF" d="M8.912 14.687c.14-.113.344-.094.479.024l.157.138c.375.31 1.324.986 2.452.986s2.077-.676 2.452-.986l.157-.138c.148-.13.376-.134.512.007a.367.367 0 0 1-.022.53l-.662.58c-.399.397-.87.96-1.087 1.573l-.184.52c-.391 1.105-1.94 1.105-2.332 0l-.184-.52c-.232-.656-1.75-2.154-1.75-2.154a.367.367 0 0 1 .012-.56zm8.274-3.762c1.08 0 1.835 1.08 1.472 2.108l-1.48 4.179c-.494 1.396-2.45 1.396-2.944 0a.449.449 0 0 1 .063-.42c.141-.188.309-.379.501-.571l.65-.57a.906.906 0 0 0 .054-1.304.88.88 0 0 0-.786-.257.955.955 0 0 0-.473.233l-.133.117c-.05.043-.16.104-.277.167-.128.067-.266-.068-.205-.2.155-.337.243-.702.243-1.035 0-.638-.316-1.203-.798-1.545a.23.23 0 0 1-.046-.333c.282-.343.706-.57 1.2-.57zm-7.413 0c.494 0 .918.226 1.2.569a.23.23 0 0 1-.046.333 1.891 1.891 0 0 0-.798 1.545c0 .329.086.688.237 1.022.063.137-.08.276-.211.206a1.902 1.902 0 0 1-.265-.16l-.151-.132a.923.923 0 0 0-.61-.231.87.87 0 0 0-.55.196.903.903 0 0 0-.04 1.365c.407.403.857.894 1.18 1.297.062.078.08.183.047.277l-.056.14c-.571 1.254-2.411 1.208-2.888-.14l-1.48-4.18c-.363-1.027.392-2.107 1.473-2.107zM12 12.019c.74 0 1.341.606 1.341 1.353 0 .748-.6 1.755-1.34 1.755-.742 0-1.342-1.007-1.342-1.755 0-.747.6-1.353 1.341-1.353zM8.294 6c1.062 0 1.923.869 1.923 1.94s-.861 2.341-1.923 2.341S6.37 9.011 6.37 7.94c0-1.071.86-1.94 1.923-1.94zm7.412 0c1.062 0 1.923.869 1.923 1.94s-.861 2.341-1.923 2.341-1.922-1.27-1.922-2.341c0-1.071.86-1.94 1.922-1.94z"/>
    </g>
</svg>
