<svg xmlns="http://www.w3.org/2000/svg" width="136" height="168" viewBox="0 0 136 168">
    <g fill="none" fill-rule="evenodd">
        <path d="M0 0h136v168H0z"/>
        <path stroke="#07ACEA" stroke-width="6" d="M41.554 22.3a8.5 8.5 0 1 1-17.002-.001 8.5 8.5 0 0 1 17.002 0" opacity=".177"/>
        <path fill="#07ACEA" d="M86.457 14.585a4.585 4.585 0 1 1-9.169-.001 4.585 4.585 0 0 1 9.17.001M108.449 81.386c0 22.795-18.479 41.275-41.274 41.275S25.9 104.18 25.9 81.386c0-22.796 18.479-41.274 41.274-41.274s41.274 18.478 41.274 41.274" opacity=".177"/>
        <path stroke="#000" stroke-width="4.8" d="M58.411 55.553c-3.16 1.496-5.77 3.983-7.328 7.11-4.163 8.357-2.243 16.664 2.803 21.968l13.36 15.144L80.608 84.63a18.368 18.368 0 0 0 5.078-12.704c0-13.025-13.504-22.895-27.274-16.373z"/>
        <path stroke="#000" stroke-linecap="round" stroke-linejoin="round" stroke-width="2.4" d="M74.52 71.869a7.274 7.274 0 1 1-14.548-.001 7.274 7.274 0 0 1 14.548 0z"/>
        <path stroke="#000" stroke-linecap="round" stroke-width="2.4" d="M95.073 97.1c-1.247-.274-2.405.72-2.341 1.994a15.892 15.892 0 0 0 3.737 9.52c2.876 3.402 6.89 5.292 11.072 5.61a16.378 16.378 0 0 0-.264-4.804 15.806 15.806 0 0 0-3.425-7.048 15.881 15.881 0 0 0-1.439-1.495 15.943 15.943 0 0 0-7.34-3.778z"/>
        <path stroke="#000" stroke-linecap="round" stroke-width="2.4" d="M107.502 114.256s2.867.19 5.7 1.018c.307.09.393.48.151.687l-5.066 4.281a.398.398 0 0 1-.652-.262c-.331-2.934-.059-5.788-.059-5.788M98.172 102.827a.463.463 0 1 1-.598-.706.463.463 0 0 1 .598.706zM42.729 99.619a1.936 1.936 0 0 0-2.232-2.116c-3.366.53-6.564 2.106-9.07 4.73-3.075 3.22-4.527 7.413-4.398 11.606a16.439 16.439 0 0 0 4.749-.774 15.791 15.791 0 0 0 6.642-4.156c.483-.506.93-1.038 1.333-1.59a15.934 15.934 0 0 0 2.976-7.7z"/>
        <path stroke="#000" stroke-linecap="round" stroke-width="2.4" d="M26.993 113.803s.114 2.87-.407 5.776a.399.399 0 0 1-.667.223l-4.796-4.58a.4.4 0 0 1 .193-.678c2.88-.641 5.747-.674 5.747-.674M37.363 103.309a.464.464 0 1 1 .641-.67.464.464 0 0 1-.641.67zM68.687 114.813c-.822-.974-2.346-.89-3.072.159a15.892 15.892 0 0 0-2.828 9.828c.212 4.45 2.246 8.392 5.372 11.188a16.395 16.395 0 0 0 2.713-3.972 15.81 15.81 0 0 0 1.573-7.675c-.033-.7-.112-1.39-.232-2.061a15.94 15.94 0 0 0-3.526-7.467zM68.108 135.991s2.158 1.896 3.903 4.277a.4.4 0 0 1-.3.637l-6.624.314a.397.397 0 0 1-.357-.605c1.522-2.53 3.474-4.627 3.474-4.627"/>
        <path stroke="#000" stroke-linecap="round" stroke-width="2.4" d="M67.66 121.245a.463.463 0 1 1-.045-.925.463.463 0 0 1 .046.925z"/>
    </g>
</svg>
