<svg xmlns="http://www.w3.org/2000/svg" width="136" height="168" viewBox="0 0 136 168">
    <g fill="none" fill-rule="evenodd">
        <path d="M0 0h136v168H0z"/>
        <path stroke="#07ACEA" stroke-width="6" d="M121 112.5a6.5 6.5 0 1 1-13 0 6.5 6.5 0 0 1 13 0" opacity=".177"/>
        <path fill="#07ACEA" d="M45.17 27.584a4.585 4.585 0 1 1-9.169-.001 4.585 4.585 0 0 1 9.17.001M108.449 81.386c0 22.795-18.479 41.275-41.274 41.275S25.9 104.18 25.9 81.386c0-22.796 18.479-41.274 41.274-41.274s41.274 18.478 41.274 41.274" opacity=".177"/>
        <g stroke="#000">
            <path stroke-linecap="round" stroke-width="2.4" d="M81.512 109.225c-1.09-.663-2.508-.1-2.863 1.125a15.879 15.879 0 0 0 .435 10.218c1.61 4.152 4.791 7.247 8.64 8.907a16.33 16.33 0 0 0 1.315-4.627 15.81 15.81 0 0 0-.942-7.778 16.116 16.116 0 0 0-.875-1.882 15.93 15.93 0 0 0-5.71-5.963zM87.677 129.494s2.648 1.115 5.058 2.819a.398.398 0 0 1-.082.698l-6.183 2.4a.398.398 0 0 1-.53-.463c.64-2.88 1.827-5.489 1.827-5.489"/>
            <path stroke-linecap="round" stroke-width="2.4" d="M82.576 115.65a.462.462 0 1 1-.334-.863.464.464 0 0 1 .334.864zM41.728 99.978c.14-1.268-.973-2.313-2.232-2.115-3.365.53-6.564 2.106-9.068 4.73-3.077 3.22-4.529 7.414-4.4 11.605a16.432 16.432 0 0 0 4.75-.774 15.8 15.8 0 0 0 6.641-4.154c.485-.508.93-1.04 1.334-1.59a15.941 15.941 0 0 0 2.975-7.702z"/>
            <path stroke-linecap="round" stroke-width="2.4" d="M25.992 114.163s.116 2.871-.406 5.775a.399.399 0 0 1-.668.223l-4.796-4.58a.4.4 0 0 1 .194-.677c2.88-.642 5.747-.674 5.747-.674M36.362 103.67a.464.464 0 1 1 .64-.669.464.464 0 0 1-.64.669zM72.846 49.13c.59 1.13 2.096 1.38 3.032.515 2.502-2.313 4.281-5.402 4.903-8.977.763-4.388-.364-8.68-2.805-12.09a16.454 16.454 0 0 0-3.513 3.284 15.812 15.812 0 0 0-3.208 7.149 15.923 15.923 0 0 0 1.591 10.118z"/>
            <path stroke-linecap="round" stroke-width="2.4" d="M78.026 28.588s-1.692-2.322-2.875-5.025a.398.398 0 0 1 .43-.557l6.533 1.137a.398.398 0 0 1 .216.67c-2.035 2.135-4.399 3.757-4.399 3.757M75.25 43.077a.464.464 0 1 1-.535.377.463.463 0 0 1 .535-.377z"/>
            <path stroke-linecap="square" stroke-linejoin="round" stroke-width="2.4" d="M49.711 70.945h7.675M63.537 91.545h7.675M77.364 80.545h7.675"/>
            <path stroke-linecap="square" stroke-linejoin="round" stroke-width="4.8" d="M53.548 66.345v28.4M67.375 66.345v28.4M81.202 66.345v28.4"/>
        </g>
    </g>
</svg>
