<svg xmlns="http://www.w3.org/2000/svg" width="136" height="168" viewBox="0 0 136 168">
    <g fill="none" fill-rule="evenodd">
        <path d="M0 0h136v168H0z"/>
        <path stroke="#07ACEA" stroke-width="6" d="M32 41.5a6.5 6.5 0 1 1-13 0 6.5 6.5 0 0 1 13 0" opacity=".177"/>
        <path fill="#07ACEA" d="M121.17 52.584a4.585 4.585 0 1 1-9.169-.001 4.585 4.585 0 0 1 9.17.001M94.17 23.084a3.085 3.085 0 1 1-6.17 0 3.085 3.085 0 0 1 6.17 0M108.449 81.386c0 22.795-18.479 41.275-41.274 41.275S25.9 104.18 25.9 81.386c0-22.796 18.479-41.274 41.274-41.274s41.274 18.478 41.274 41.274" opacity=".177"/>
        <path stroke="#000" stroke-linecap="round" stroke-linejoin="round" stroke-width="4.8" d="M50 100.331c2.083-4.921 5.486-8.838 9.625-11.02M74.251 89.068c4.354 2.124 7.942 6.152 10.105 11.262"/>
        <path stroke="#000" stroke-linecap="round" stroke-linejoin="round" stroke-width="3.6" d="M78.784 77.85c0 7.188-5.511 13.016-12.31 13.016-6.801 0-12.313-5.828-12.313-13.016 0-7.19 5.512-13.018 12.312-13.018s12.311 5.829 12.311 13.018z"/>
        <path fill="#D3F0FB" d="M78.775 69.491c0 3.637-5.512 6.587-12.311 6.587-6.8 0-12.312-2.95-12.312-6.587"/>
        <path stroke="#000" stroke-linecap="round" stroke-linejoin="round" stroke-width="3.6" d="M78.775 69.491c0 3.637-5.512 6.587-12.311 6.587-6.8 0-12.312-2.95-12.312-6.587"/>
        <path fill="#D3F0FB" d="M54.18 69.495l-2.347-4.002a3.39 3.39 0 0 1 2.25-4.425l3.483-.998a8.41 8.41 0 0 0 1.937-.832l2.068-1.218a10.287 10.287 0 0 1 9.98-.25l2.622 1.369c.66.344 1.363.6 2.089.758l2.371.518a3.39 3.39 0 0 1 2.47 4.455l-2.3 4.621a60.613 60.613 0 0 0-23.26-.247l-1.362.25z"/>
        <path stroke="#000" stroke-linecap="round" stroke-linejoin="round" stroke-width="3.6" d="M54.18 69.495l-2.347-4.002a3.39 3.39 0 0 1 2.25-4.425l3.483-.998a8.41 8.41 0 0 0 1.937-.832l2.068-1.218a10.287 10.287 0 0 1 9.98-.25l2.622 1.369c.66.344 1.363.6 2.089.758l2.371.518a3.39 3.39 0 0 1 2.47 4.455l-2.3 4.621a60.613 60.613 0 0 0-23.26-.247l-1.362.25z"/>
        <path fill="#000" d="M68.752 62.828a2.288 2.288 0 1 1-4.576.001 2.288 2.288 0 0 1 4.576-.001"/>
        <path stroke="#000" stroke-width="2.4" d="M59.542 113.36a8.555 8.555 0 0 0 6.812 4.658M59.542 113.663l-6.215 11.464 4.407.317 2.811 3.595 5.81-10.716M74.814 113.362c-1.296 2.553-3.828 4.373-6.813 4.656"/>
        <path stroke="#000" stroke-width="2.4" d="M68.002 118.018c-.273.025-.545.04-.824.04-.28 0-.552-.015-.824-.04M74.814 113.362a8.52 8.52 0 0 0 .93-3.867 8.566 8.566 0 0 0-17.131 0c0 1.393.34 2.703.928 3.866"/>
        <path stroke="#000" stroke-width="2.4" d="M74.814 113.362l6.216 11.463-4.407.316-2.811 3.597-5.81-10.72"/>
    </g>
</svg>
