<svg xmlns="http://www.w3.org/2000/svg" width="136" height="168" viewBox="0 0 136 168">
    <g fill="none" fill-rule="evenodd">
        <path d="M0 0h136v168H0z"/>
        <path stroke="#07ACEA" stroke-width="6" d="M22 116.5a6.5 6.5 0 1 1-13 0 6.5 6.5 0 0 1 13 0" opacity=".177"/>
        <path fill="#07ACEA" d="M26.17 42.584a4.585 4.585 0 1 1-9.169-.001 4.585 4.585 0 0 1 9.17.001M127.17 92.084a3.085 3.085 0 1 1-6.17 0 3.085 3.085 0 0 1 6.17 0M108.449 81.386c0 22.795-18.479 41.275-41.274 41.275S25.9 104.18 25.9 81.386c0-22.796 18.479-41.274 41.274-41.274s41.274 18.478 41.274 41.274" opacity=".177"/>
        <g stroke="#000">
            <path stroke-linecap="round" stroke-linejoin="round" stroke-width="2.4" d="M99.82 83.846a9.607 9.607 0 0 1-4.773-1.263 7.264 7.264 0 0 0-7.159 0 9.605 9.605 0 0 1-4.772 1.263 9.599 9.599 0 0 1-4.773-1.263 7.266 7.266 0 0 0-7.16 0 9.605 9.605 0 0 1-4.773 1.263 9.602 9.602 0 0 1-4.772-1.263 7.266 7.266 0 0 0-7.16 0 9.602 9.602 0 0 1-4.773 1.263 9.602 9.602 0 0 1-4.772-1.263 7.266 7.266 0 0 0-7.16 0A9.602 9.602 0 0 1 33 83.846M43.169 92.733h2.4"/>
            <path stroke-dasharray="4.514400100708007,6.77040023803711" stroke-linecap="round" stroke-linejoin="round" stroke-width="2.4" d="M52.34 92.733h7.9"/>
            <path stroke-linecap="round" stroke-linejoin="round" stroke-width="2.4" d="M63.625 92.733h2.4M72.378 92.733h4.8M86.835 92.733h4.8M53.183 102.555h1.2"/>
            <path stroke-dasharray="2.186400032043457,6.560400009155273" stroke-linecap="round" stroke-linejoin="round" stroke-width="2.4" d="M60.943 102.555h14.215"/>
            <path stroke-linecap="round" stroke-linejoin="round" stroke-width="2.4" d="M78.438 102.555h1.2"/>
            <path stroke-width="4.8" d="M57.932 81.639c.672-2.602 1.675-5.249 3.147-7.764 5.023-8.588 14.059-13.199 18.297-14.977a1.939 1.939 0 0 1 2.683 1.568c.508 4.383.91 13.891-3.493 22.241"/>
            <path stroke-width="2.4" d="M70.483 63.862l11.614 6.789M67.04 67.139l13.888 8.122M90.68 42.576l-9.597 16.417M94.04 41.696a2.454 2.454 0 0 1-3.36.88 2.457 2.457 0 0 1 2.48-4.24 2.456 2.456 0 0 1 .88 3.36z"/>
            <path stroke-linecap="round" stroke-width="2.4" d="M93.98 59.557c.084.721.162 1.52.225 2.388"/>
            <path stroke-dasharray="3.562800121307373,4.453199958801269" stroke-linecap="round" stroke-width="2.4" d="M94.362 66.395a56.407 56.407 0 0 1-.308 5.776"/>
            <path stroke-linecap="round" stroke-width="2.4" d="M93.773 74.387a50.37 50.37 0 0 1-.408 2.366M47.991 73.93c.295-.75.61-1.485.943-2.208"/>
            <path stroke-dasharray="4.154399871826172,5.192400169372559" stroke-linecap="round" stroke-width="2.4" d="M51.41 67.158c5.252-8.328 12.9-13.621 18.812-16.723"/>
            <path stroke-linecap="round" stroke-width="2.4" d="M72.545 49.281a58.86 58.86 0 0 1 2.187-.974"/>
            <path stroke-width="4.8" d="M57.932 82.114c.672-2.6 1.675-5.248 3.147-7.763 5.023-8.59 14.059-13.199 18.297-14.977a1.938 1.938 0 0 1 2.683 1.568c.508 4.381.91 13.89-3.493 22.24"/>
            <path stroke-linecap="round" stroke-width="2.4" d="M69.64 112.84c-1.088-.664-2.506-.1-2.863 1.124-.948 3.272-.877 6.837.436 10.218 1.61 4.154 4.791 7.247 8.64 8.908a16.358 16.358 0 0 0 1.315-4.627 15.813 15.813 0 0 0-1.817-9.659 15.936 15.936 0 0 0-5.71-5.964zM75.807 133.109s2.647 1.115 5.058 2.82a.397.397 0 0 1-.083.697l-6.182 2.4a.399.399 0 0 1-.53-.462c.64-2.88 1.827-5.49 1.827-5.49"/>
            <path stroke-linecap="round" stroke-width="2.4" d="M70.706 119.265a.463.463 0 1 1-.335-.862.463.463 0 0 1 .335.862z"/>
        </g>
    </g>
</svg>
