<svg xmlns="http://www.w3.org/2000/svg" width="136" height="168" viewBox="0 0 136 168">
    <g fill="none" fill-rule="evenodd">
        <path d="M0 0h136v168H0z"/>
        <path stroke="#07ACEA" stroke-width="4" d="M29 40a5 5 0 1 1-10 0 5 5 0 0 1 10 0" opacity=".177"/>
        <path fill="#07ACEA" d="M82.17 133.584a4.585 4.585 0 1 1-9.169-.001 4.585 4.585 0 0 1 9.17.001M111.17 43.084a3.085 3.085 0 1 1-6.17 0 3.085 3.085 0 0 1 6.17 0M108.449 81.386c0 22.795-18.479 41.275-41.274 41.275S25.9 104.18 25.9 81.386c0-22.796 18.479-41.274 41.274-41.274s41.274 18.478 41.274 41.274" opacity=".177"/>
        <g stroke="#000">
            <path stroke-width="4.8" d="M84.107 63.624c9.479 9.479 9.479 24.848 0 34.328-9.48 9.48-24.85 9.48-34.33 0-9.48-9.48-9.48-24.85 0-34.328 9.48-9.48 24.85-9.48 34.33 0z"/>
            <path stroke-width="4.8" d="M75.645 72.085c4.807 4.807 4.807 12.6 0 17.407-4.806 4.806-12.6 4.806-17.406 0-4.808-4.807-4.808-12.6 0-17.407 4.806-4.807 12.6-4.807 17.406 0z"/>
            <path stroke-width="2.4" d="M73.176 91.403l6.058 10.318M54.649 59.856l6.059 10.317M77.557 87.021l10.317 6.059M46.01 68.495l10.317 6.059M56.352 87.066l-10.291 6.101M87.823 68.41l-10.291 6.099M60.751 91.429l-6.015 10.341M79.147 59.806l-6.015 10.34"/>
            <path stroke-dasharray="2.390399980545044,2.390399980545044" stroke-linecap="round" stroke-width="1.2" d="M52.16 56.053l10.205.41c2.167.087 4.337-.02 6.486-.317l10.347-1.438c6.932-.963 13.017 4.644 12.624 11.63l-.534 9.45a36.5 36.5 0 0 0 .375 7.65l1.487 9.586c1.084 6.978-4.534 13.183-11.586 12.798l-9.686-.529a36.49 36.49 0 0 0-7.648.386l-9.35 1.468c-6.915 1.084-13.097-4.415-12.827-11.407l.404-10.439a36.623 36.623 0 0 0-.326-6.485L40.71 68.701c-.964-6.865 4.524-12.925 11.45-12.648z"/>
        </g>
    </g>
</svg>
