<svg xmlns="http://www.w3.org/2000/svg" width="115" height="32" viewBox="0 0 115 32">
    <path fill="#FFF" fill-rule="evenodd" d="M41.19 14.501c.813 0 1.549.27 2.188.803.48.4 1.05 1.148 1.05 2.446 0 1.299-.57 2.047-1.05 2.446a3.583 3.583 0 0 1-.585.396v4.03c0 2.116 1.702 3.837 3.795 3.837 2.092 0 3.795-1.721 3.795-3.836v-1.52h-.94c-.317 0-.476-.386-.252-.612l3.782-3.823a.355.355 0 0 1 .607.254v3.16h.008v2.54c0 3.903-3.14 7.077-7 7.077s-7-3.174-7-7.076v-4.03a3.583 3.583 0 0 1-.585-.397c-.48-.399-1.05-1.147-1.05-2.446 0-1.298.57-2.046 1.05-2.446a3.34 3.34 0 0 1 2.187-.803zM25.051 5.736c.77 0 1.506.069 2.212.206.705.138 1.266.288 1.683.45l-.625 2.82c-.417-.147-.87-.276-1.359-.39a7.284 7.284 0 0 0-1.647-.17c-1.122 0-1.683.316-1.683.948a.99.99 0 0 0 .073.39.826.826 0 0 0 .288.327c.144.106.34.22.59.342.247.123.564.257.949.404.785.294 1.434.584 1.947.87.513.286.917.594 1.214.925.296.332.505.7.625 1.104.12.404.18.873.18 1.407 0 1.26-.468 2.215-1.406 2.861-.937.646-2.264.97-3.979.97-1.122 0-2.055-.097-2.8-.292-.746-.194-1.263-.356-1.551-.486l.6-2.94c.61.243 1.235.433 1.876.57.64.138 1.274.207 1.9.207.657 0 1.121-.064 1.394-.194.272-.13.409-.38.409-.754 0-.291-.177-.546-.53-.765-.352-.219-.889-.466-1.61-.741-.561-.21-1.07-.43-1.527-.657a4.479 4.479 0 0 1-1.166-.813 3.3 3.3 0 0 1-.745-1.13c-.176-.438-.265-.965-.265-1.58 0-1.2.441-2.147 1.323-2.844.88-.697 2.091-1.045 3.63-1.045zm75.57 0c1.796 0 3.214.555 4.256 1.665 1.042 1.11 1.563 2.742 1.563 4.897 0 .21-.008.442-.024.692-.016.252-.032.475-.048.669h-8.126c.08.745.424 1.336 1.034 1.774.609.437 1.426.656 2.452.656.657 0 1.302-.06 1.936-.182.632-.122 1.15-.271 1.55-.45l.48 2.941a4.858 4.858 0 0 1-.769.292c-.32.097-.677.182-1.07.255-.392.073-.813.134-1.261.182-.45.049-.898.073-1.347.073-1.138 0-2.128-.17-2.969-.51-.841-.34-1.538-.806-2.091-1.398a5.557 5.557 0 0 1-1.227-2.102 8.411 8.411 0 0 1-.396-2.625c0-1.134.172-2.126.517-2.977.344-.85.797-1.56 1.358-2.127a5.634 5.634 0 0 1 1.935-1.287 5.991 5.991 0 0 1 2.248-.438zm-26.782 0c1.059 0 1.94.122 2.645.364.706.244 1.27.592 1.695 1.045.425.454.725 1.005.901 1.653a8.24 8.24 0 0 1 .265 2.163v7.535a45.25 45.25 0 0 1-2.14.4c-.913.154-2.019.231-3.318.231-.817 0-1.558-.072-2.223-.219-.666-.146-1.238-.384-1.719-.716a3.264 3.264 0 0 1-1.106-1.3c-.257-.535-.385-1.192-.385-1.97 0-.744.148-1.376.445-1.895a3.446 3.446 0 0 1 1.19-1.24 5.345 5.345 0 0 1 1.707-.668 9.47 9.47 0 0 1 1.995-.207c.465 0 .878.021 1.238.061.361.041.654.094.878.158v-.34c0-.615-.184-1.11-.553-1.483-.369-.372-1.01-.559-1.923-.559-.61 0-1.21.045-1.803.134a7.708 7.708 0 0 0-1.539.377l-.457-2.916c.208-.065.469-.134.781-.207.313-.073.653-.138 1.022-.194.369-.057.758-.106 1.166-.147.41-.04.822-.06 1.238-.06zM112.787 0v13.926c0 .325.024.616.072.875.049.26.14.478.277.656.136.179.332.325.589.438.256.113.601.186 1.034.219l-.505 2.989c-1.042-.017-1.887-.13-2.537-.34-.649-.21-1.162-.507-1.538-.887a2.946 2.946 0 0 1-.77-1.386 7.535 7.535 0 0 1-.204-1.835V.583L112.787 0zM41.19 16.527c-.345 0-.635.108-.913.34-.138.114-.32.33-.32.883 0 .552.182.769.32.883.278.232.568.34.913.34.345 0 .635-.108.914-.34.137-.114.32-.33.32-.883 0-.552-.183-.769-.32-.884a1.363 1.363 0 0 0-.914-.34zM11.155 2.017v3.184H3.751v3.524h6.587v3.184H3.751v6.95H0V2.018h11.155zm5.986 4.06V18.86H13.56V6.076h3.581zm47.442-.268c.193 0 .425.012.698.036a14.125 14.125 0 0 1 1.634.243c.272.057.506.126.698.207l-.601 2.99a26.61 26.61 0 0 0-1.13-.256 6.913 6.913 0 0 0-1.395-.134c-.224 0-.493.021-.805.06-.313.042-.55.086-.71.135v9.77H59.39V6.757c.641-.227 1.399-.441 2.272-.644.874-.203 1.847-.304 2.921-.304zm20.051.267c.161.632.35 1.316.568 2.054a163.057 163.057 0 0 0 1.376 4.435c.234.713.464 1.361.689 1.944.21-.583.434-1.23.676-1.944.24-.713.478-1.446.711-2.2.233-.753.459-1.498.676-2.235.217-.738.407-1.422.568-2.054h3.704a89.735 89.735 0 0 1-2.4 7.097c-.843 2.171-1.675 4.067-2.495 5.687h-2.973c-.82-1.62-1.653-3.516-2.497-5.687a89.392 89.392 0 0 1-2.401-7.097h3.798zM35.75 0v6.125a7.36 7.36 0 0 1 .926-.231 5.777 5.777 0 0 1 1.094-.11c1.026 0 1.879.142 2.56.426.681.284 1.227.685 1.635 1.203.41.519.697 1.134.866 1.847.168.713.252 1.507.252 2.382l-.033 1.13a.298.298 0 0 1-.386.28 4.795 4.795 0 0 0-2.789-.045.297.297 0 0 1-.374-.292v-.636c0-1.167-.148-1.993-.445-2.479-.297-.486-.846-.73-1.647-.73-.32 0-.621.03-.901.086-.281.057-.533.118-.758.182v9.722h-3.582V.583L35.75 0zm23.136 2.017V5.25h-5.024v8.954c0 .407-.154.798-.43 1.094l-2.424 2.6a.518.518 0 0 1-.897-.36V5.25h-5.025V2.017h13.8zm15.58 11.326c-.337 0-.654.02-.95.06-.297.041-.557.119-.781.232-.225.113-.4.267-.53.461-.128.195-.191.438-.191.73 0 .567.187.96.565 1.178.376.219.892.328 1.55.328.352 0 .689-.008 1.01-.024.32-.016.577-.04.769-.073V13.49a6.672 6.672 0 0 0-.65-.098 7.245 7.245 0 0 0-.792-.048zm26.205-4.618c-.4 0-.745.069-1.034.207-.288.137-.528.32-.721.547-.192.226-.34.49-.444.79-.105.3-.18.603-.229.91h4.736a3.799 3.799 0 0 0-.156-.898 2.26 2.26 0 0 0-.409-.778 2.194 2.194 0 0 0-.697-.56c-.28-.145-.63-.218-1.046-.218zM15.338.243c.578 0 1.078.19 1.503.571.425.381.637.904.637 1.568 0 .665-.212 1.187-.637 1.567a2.175 2.175 0 0 1-1.503.572c-.576 0-1.078-.19-1.502-.572-.425-.38-.637-.902-.637-1.567 0-.664.212-1.187.637-1.568.424-.38.926-.57 1.502-.57z"/>
</svg>
