<svg xmlns="http://www.w3.org/2000/svg" width="29" height="46" viewBox="0 0 29 46">
    <path fill="#005E91" fill-rule="evenodd" d="M2.968 19.403a.865.865 0 0 1-1.092-.834V1.287a.63.63 0 0 1 .631-.63h10.496c.348 0 .632.282.632.63v3.906c0 .347-.284.63-.632.63H8.676a.63.63 0 0 0-.631.629v3.144a.63.63 0 0 0 .631.63h2.983a.63.63 0 0 1 .63.629v3.906a.63.63 0 0 1-.63.63H8.676a.63.63 0 0 0-.631.629v2.525c0 .575-.55.98-1.107.831a7.608 7.608 0 0 0-3.97.027zM28.198.657c.348 0 .631.282.631.63v3.985c0 .347-.283.63-.631.63h-2.39a.631.631 0 0 0-.63.629v14.58c0 .643-.246 1.263-.69 1.73l-4.115 4.354c-.49.519-1.364.173-1.364-.54V6.531a.63.63 0 0 0-.631-.63h-2.389a.63.63 0 0 1-.631-.63V1.288a.63.63 0 0 1 .631-.63h12.209zM3.283 24.494c-.277.228-.646.652-.646 1.687 0 1.035.369 1.458.647 1.686.513.422 1.073.627 1.712.627.64 0 1.2-.205 1.712-.627.278-.228.648-.65.648-1.686 0-1.035-.37-1.459-.648-1.687a2.603 2.603 0 0 0-1.712-.627c-.64 0-1.2.205-1.713.627zm22.092 2.93v5.126h.013v1.495c0 6.33-5.165 11.48-11.514 11.48-6.349 0-11.514-5.15-11.514-11.48V30.42a5.728 5.728 0 0 1-.753-.524C.874 29.293 0 28.16 0 26.181c0-1.978.874-3.112 1.606-3.715.992-.814 2.132-1.227 3.39-1.227 1.259 0 2.399.413 3.39 1.227.733.602 1.606 1.736 1.606 3.715 0 1.98-.874 3.113-1.607 3.715a5.703 5.703 0 0 1-.752.524v3.625c0 3.431 2.8 6.223 6.241 6.223 3.387 0 6.145-2.704 6.233-6.058H18.57a.583.583 0 0 1-.414-.995l6.22-6.202a.585.585 0 0 1 1 .412z"/>
</svg>
