<svg xmlns="http://www.w3.org/2000/svg" width="66" height="46" viewBox="0 0 66 46">
    <g fill="none" fill-rule="evenodd">
        <path fill="#262626" d="M0 3c0-1.657 1.348-3 3.007-3h59.986A3.01 3.01 0 0 1 66 3v40c0 1.657-1.348 3-3.007 3H3.007A3.01 3.01 0 0 1 0 43V3z"/>
        <path fill="#FF5F00" d="M27.658 14.525h10.503v16.918H27.658z"/>
        <path fill="#EB001B" d="M28.74 22.985a10.687 10.687 0 0 1 4.166-8.457c-4.473-3.467-10.896-2.962-14.755 1.16a10.65 10.65 0 0 0 0 14.598c3.86 4.121 10.282 4.626 14.755 1.16a10.687 10.687 0 0 1-4.167-8.46z"/>
        <path fill="#F79E1B" fill-rule="nonzero" d="M49.536 30.083v-.704h.167v-.145h-.397v.145h.157v.704h.073zm.77 0v-.849h-.12l-.14.606-.14-.606h-.12v.849h.087v-.643l.13.552h.09l.13-.552v.643h.083z"/>
        <path fill="#F79E1B" d="M50.558 22.985c0 4.12-2.385 7.877-6.142 9.677a11.034 11.034 0 0 1-11.51-1.22 10.705 10.705 0 0 0 4.168-8.458c0-3.301-1.536-6.42-4.168-8.46a11.034 11.034 0 0 1 11.51-1.219c3.757 1.8 6.142 5.558 6.142 9.677v.003z"/>
    </g>
</svg>
