<svg xmlns="http://www.w3.org/2000/svg" width="30" height="48" viewBox="0 0 30 48">
    <g fill="none" fill-rule="evenodd">
        <path d="M-15-5h60v60h-60z"/>
        <path fill="#E26400" d="M0 32.607c0-.479.025-.94.075-1.386H0c0-1.913.2-3.888.599-5.925.399-2.037.852-3.78 1.359-5.232a74.613 74.613 0 0 0 1.458-4.7c.466-1.683.77-3.13.91-4.343.142-1.212.046-2.601-.286-4.168.1.016.241.062.424.136.183.074.54.3 1.072.68.532.38 1.056.862 1.571 1.448.516.585 1.11 1.467 1.783 2.647.674 1.179 1.293 2.535 1.858 4.07a18.805 18.805 0 0 0 2.382-2.623c.673-.907 1.309-1.987 1.907-3.24.599-1.254 1.056-2.718 1.372-4.392.316-1.674.474-3.534.474-5.579.183.115.432.28.748.495.316.214.927.75 1.833 1.608a26.608 26.608 0 0 1 2.606 2.87c.831 1.055 1.75 2.502 2.755 4.341a38.149 38.149 0 0 1 2.594 5.913c.723 2.103 1.334 4.676 1.833 7.719.499 3.043.748 6.263.748 9.66 0 2.69-.67 5.175-2.007 7.46a14.873 14.873 0 0 1-5.462 5.43c-2.302 1.336-4.809 2.004-7.519 2.004-2.726 0-5.24-.668-7.543-2.004a14.873 14.873 0 0 1-5.462-5.43C.67 37.78 0 35.296 0 32.606zm9.7 3.71c0 1.469.52 2.718 1.56 3.749 1.038 1.03 2.29 1.546 3.752 1.546 1.463 0 2.715-.515 3.754-1.546 1.039-1.031 1.558-2.28 1.558-3.748 0-1.65-.158-3.175-.474-4.577-.316-1.402-.702-2.515-1.16-3.34a15.512 15.512 0 0 0-1.37-2.103c-.458-.577-.845-.973-1.16-1.187l-.474-.347c0 1.37-.191 2.483-.574 3.34a6.793 6.793 0 0 1-1.62 2.251c-.317-.857-.67-1.55-1.06-2.078-.391-.527-.711-.84-.96-.94l-.35-.148c.183.693.158 1.48-.075 2.362-.232.883-.515 1.897-.847 3.043-.333 1.147-.5 2.231-.5 3.254h.026a3.148 3.148 0 0 0-.025.47z"/>
    </g>
</svg>
