<svg xmlns="http://www.w3.org/2000/svg" width="24" height="24" viewBox="0 0 24 24">
    <g fill="none" fill-rule="evenodd">
        <circle cx="12" cy="12" r="12" fill="#4B4B4B"/>
        <path fill="#FFF" fill-rule="nonzero" d="M9.778 10.682h4.444V8.977c0-.627-.217-1.163-.65-1.607A2.117 2.117 0 0 0 12 6.705c-.613 0-1.137.221-1.571.665-.434.444-.651.98-.651 1.607v1.705zm7.222.852v5.114a.831.831 0 0 1-.243.603.795.795 0 0 1-.59.249H7.833a.795.795 0 0 1-.59-.249.831.831 0 0 1-.243-.603v-5.114c0-.237.081-.438.243-.604a.795.795 0 0 1 .59-.248h.278V8.977c0-1.089.382-2.024 1.146-2.805C10.02 5.39 10.935 5 12 5s1.98.39 2.743 1.172c.764.781 1.146 1.716 1.146 2.805v1.705h.278c.231 0 .428.083.59.248a.831.831 0 0 1 .243.604z"/>
    </g>
</svg>
