<svg xmlns="http://www.w3.org/2000/svg" width="24" height="24" viewBox="0 0 24 24">
    <g fill="none" fill-rule="evenodd">
        <circle cx="12" cy="12" r="12" fill="#CA414D"/>
        <path fill="#FFF" d="M14.68 6.757c.548 0 .994.425.994.949 0 .523-.446.95-.994.95-.547 0-.993-.427-.993-.95 0-.524.446-.95.993-.95m2.57.95c0-1.354-1.153-2.456-2.57-2.456-1.417 0-2.57 1.102-2.57 2.456 0 1.066.716 1.973 1.711 2.311l.07 3.551c.027 1.311-1.068 2.398-2.44 2.423a2.538 2.538 0 0 1-1.773-.665 2.319 2.319 0 0 1-.762-1.677l-.012-.43.61-.011c.207-.004.306-.246.157-.383L7.145 10.5c-.15-.138-.399-.034-.395.165l.039 1.967h-.006l.031 1.064a4.27 4.27 0 0 0 1.406 3.077A4.67 4.67 0 0 0 11.49 18c2.531-.045 4.551-2.05 4.503-4.469l-.072-3.675c.791-.419 1.329-1.225 1.329-2.15"/>
    </g>
</svg>
