<svg xmlns="http://www.w3.org/2000/svg" width="14" height="13" viewBox="0 0 14 13">
    <path fill="#000" fill-rule="nonzero" d="M.862 5.687l2.483 2.258-.69 3.147c-.069.41.07.821.414 1.026a.787.787 0 0 0 .552.206c.138 0 .276 0 .413-.069 0 0 .07 0 .07-.068l2.827-1.574 2.828 1.574s.069 0 .069.068c.344.137.758.137 1.034-.068.345-.206.483-.616.414-1.027l-.69-3.147c.276-.205.69-.616 1.104-1.026L13 5.824l.069-.069a.95.95 0 0 0 .207-1.026c-.138-.342-.414-.616-.828-.684h-.069l-3.241-.342L7.828.76s0-.068-.07-.068C7.69.213 7.346.008 7 .008c-.345 0-.69.205-.897.547 0 0 0 .069-.069.069l-1.31 2.942-3.241.342h-.07c-.344.068-.689.342-.827.684-.069.41 0 .821.276 1.095z" opacity=".2"/>
</svg>
