<svg xmlns="http://www.w3.org/2000/svg" width="10" height="9" viewBox="0 0 10 9">
    <path fill="#000" fill-rule="nonzero" d="M1.01 4.062l1.773 1.613-.492 2.248c-.05.293.049.586.295.733a.562.562 0 0 0 .394.147c.099 0 .197 0 .296-.05 0 0 .05 0 .05-.048L5.344 7.58l2.02 1.124s.049 0 .049.049c.246.097.542.097.739-.05.246-.146.345-.439.295-.732l-.492-2.248c.197-.147.492-.44.788-.733l.936-.831.05-.05a.679.679 0 0 0 .147-.732.761.761 0 0 0-.591-.489h-.05l-2.315-.244L5.985.543s0-.049-.049-.049C5.886.152 5.64.006 5.394.006c-.246 0-.493.146-.64.39 0 0 0 .05-.05.05l-.936 2.1-2.315.245h-.05a.847.847 0 0 0-.59.489c-.05.293 0 .586.197.782z"/>
</svg>
