<svg xmlns="http://www.w3.org/2000/svg" width="24" height="24" viewBox="0 0 24 24">
    <g fill="none" fill-rule="evenodd">
        <path d="M0 0h24v24H0z"/>
        <path fill="#B5B5B5" fill-rule="nonzero" d="M12.087 13.691c3.11 0 5.69 2.292 6.226 5.308l2.82.001c.479 0 .867.448.867 1 0 .513-.335.936-.766.993l-.1.007H17.75a.858.858 0 0 1-.38 0H6.803a.858.858 0 0 1-.38 0H2.867C2.388 21 2 20.552 2 20c0-.513.335-.936.766-.993l.1-.007H5.86c.537-3.017 3.117-5.309 6.227-5.309zm0 1.711c-2.157 0-3.974 1.528-4.479 3.597h8.957c-.505-2.07-2.322-3.597-4.478-3.597zm8.985-4.555a.575.575 0 0 1 0 .731l-2.491 2.998a.837.837 0 0 1-1.203.098.892.892 0 0 1 0-1.332l2.92-2.558a.539.539 0 0 1 .774.063zm-17.157-.103l2.88 2.598a.89.89 0 0 1 .078 1.234.836.836 0 0 1-1.28 0l-2.53-2.957a.633.633 0 0 1 .055-.875.593.593 0 0 1 .797 0zm8.181-7.825l.103.006a.87.87 0 0 1 .706.587l1.622 3.104a.38.38 0 0 1-.15.507.358.358 0 0 1-.435-.07L12.915 5.96l-.343 5.217a.49.49 0 0 1-.518.464.492.492 0 0 1-.452-.464l-.346-5.216-1.024 1.093a.36.36 0 0 1-.516.01.381.381 0 0 1-.068-.448l1.622-3.109a.881.881 0 0 1 .214-.342.845.845 0 0 1 .612-.246z"/>
    </g>
</svg>
