<svg xmlns="http://www.w3.org/2000/svg" width="48" height="48" viewBox="0 0 48 48">
    <path fill="#F9B201" fill-rule="evenodd" d="M23.44 37.695a1.553 1.553 0 0 1 1.657 1.657l-.497 7.112a1.057 1.057 0 0 1-1.126.98 1.056 1.056 0 0 1-.977-.98L22 39.352a1.552 1.552 0 0 1 1.44-1.657zm-11.718-3.883a1.551 1.551 0 1 1 2.19 2.19l-5.245 4.606a1.1 1.1 0 0 1-1.552-1.55zm21.29 0a1.551 1.551 0 0 1 2.362 0l4.537 5.317a.997.997 0 0 1-.113 1.407.997.997 0 0 1-1.296 0l-5.317-4.535a1.553 1.553 0 0 1-.172-2.19zM23.55 12.38c6.35 0 11.516 5.167 11.516 11.517 0 6.348-5.166 11.515-11.516 11.515s-11.515-5.167-11.515-11.515c0-6.35 5.165-11.517 11.515-11.517zm0 3.097c-4.642 0-8.418 3.776-8.418 8.42 0 4.642 3.776 8.418 8.418 8.418 4.642 0 8.419-3.776 8.419-8.418 0-4.644-3.777-8.42-8.419-8.42zm15.348 6.868l.106.003 7.113.496c.58.04 1.019.545.979 1.125a1.052 1.052 0 0 1-.98.977l-7.112.499a1.552 1.552 0 1 1 0-3.097zm-30.805.003a1.553 1.553 0 1 1 0 3.096l-7.11-.495a1.056 1.056 0 0 1 0-2.106zm30.41-15.093a1 1 0 0 1 1.409 1.41l-4.537 5.316a1.551 1.551 0 0 1-2.19.174 1.551 1.551 0 0 1 0-2.363zM7.216 7.185a1.1 1.1 0 0 1 1.45 0l5.245 4.608a1.551 1.551 0 1 1-2.19 2.19L7.116 8.735c-.4-.456-.354-1.15.1-1.551zM23.508.349l.115.002c.53.037.943.463.977.978l.498 7.113a1.554 1.554 0 0 1-1.441 1.656A1.55 1.55 0 0 1 22 8.442l.496-7.113c.04-.58.545-1.019 1.126-.978z"/>
</svg>
