<svg xmlns="http://www.w3.org/2000/svg" width="40" height="38" viewBox="0 0 40 38">
    <g fill="none" fill-rule="evenodd">
        <path d="M-4-5h48v48H-4z"/>
        <path fill="#4DB67D" d="M20.174 22.383c6.22 0 11.38 4.584 12.452 10.617h5.64c.958 0 1.734.895 1.734 2 0 1.052-.704 1.914-1.598 1.994l-.136.006-6.765.001a1.717 1.717 0 0 1-.762 0H9.608a1.717 1.717 0 0 1-.763 0L1.734 37C.776 37 0 36.105 0 35c0-1.052.704-1.914 1.598-1.994L1.734 33H7.72c1.073-6.033 6.233-10.617 12.454-10.617zm0 3.422c-4.313 0-7.948 3.054-8.958 7.195H29.13c-1.009-4.14-4.643-7.195-8.956-7.195zm17.97-9.11a1.15 1.15 0 0 1 0 1.461l-4.983 5.996a1.673 1.673 0 0 1-2.404.196 1.784 1.784 0 0 1 0-2.665l5.839-5.115a1.078 1.078 0 0 1 1.547.127zm-34.315-.207l5.762 5.196a1.78 1.78 0 0 1 .154 2.469 1.671 1.671 0 0 1-2.559 0l-5.059-5.916a1.265 1.265 0 0 1 .11-1.75 1.185 1.185 0 0 1 1.592 0zM20.154.837c.285-.007.576.06.846.209.394.217.672.57.808.972l3.245 6.214a.76.76 0 0 1-.297 1.015.716.716 0 0 1-.871-.14L21.83 6.92l-.687 10.433c-.035.55-.5.968-1.035.93a.983.983 0 0 1-.905-.93l-.69-10.43-2.05 2.184a.718.718 0 0 1-1.032.02.763.763 0 0 1-.136-.895l3.24-6.203c.085-.257.23-.497.433-.699a1.69 1.69 0 0 1 1.185-.493z"/>
    </g>
</svg>
