<svg xmlns="http://www.w3.org/2000/svg" width="40" height="51" viewBox="0 0 40 51">
    <g fill="none" fill-rule="evenodd">
        <path d="M-4-4h48v58H-4z"/>
        <path fill="#ED4908" d="M20.109 32.84c.535-.04 1 .378 1.035.928l.687 10.433 2.054-2.187a.716.716 0 0 1 .87-.14.76.76 0 0 1 .298 1.015l-3.245 6.214a1.74 1.74 0 0 1-.808.973 1.67 1.67 0 0 1-.856.208 1.69 1.69 0 0 1-1.175-.493 1.763 1.763 0 0 1-.433-.699l-3.24-6.203a.763.763 0 0 1 .136-.894.718.718 0 0 1 1.032.02l2.05 2.184.69-10.43a.983.983 0 0 1 .905-.93zm.065-18.457c6.22 0 11.38 4.584 12.452 10.617h5.64c.958 0 1.734.895 1.734 2 0 1.052-.704 1.914-1.598 1.994l-.136.006-6.765.001a1.717 1.717 0 0 1-.762 0H9.608a1.717 1.717 0 0 1-.763 0L1.734 29C.776 29 0 28.105 0 27c0-1.052.704-1.914 1.598-1.994L1.734 25H7.72c1.073-6.033 6.233-10.617 12.454-10.617zm0 3.422c-4.313 0-7.948 3.054-8.958 7.195H29.13c-1.009-4.14-4.643-7.195-8.956-7.195zm17.97-9.11a1.15 1.15 0 0 1 0 1.461l-4.983 5.996a1.673 1.673 0 0 1-2.404.196 1.784 1.784 0 0 1 0-2.665l5.839-5.115a1.078 1.078 0 0 1 1.547.127zM3.828 8.488l5.762 5.196a1.78 1.78 0 0 1 .154 2.469 1.671 1.671 0 0 1-2.559 0l-5.059-5.916a1.265 1.265 0 0 1 .11-1.75 1.185 1.185 0 0 1 1.592 0zM20.254.78c.584.043 1.036.52 1.075 1.103l.544 8.021c.067.964-.643 1.8-1.58 1.867-.94.068-1.754-.66-1.82-1.624a2.31 2.31 0 0 1 0-.243l.547-8.02c.044-.656.597-1.15 1.234-1.104z"/>
    </g>
</svg>
