<svg xmlns="http://www.w3.org/2000/svg" width="72" height="72" viewBox="0 0 72 72">
    <g fill="none" fill-rule="nonzero">
        <path fill="#DCDCDC" d="M72 36c0 6.531-1.61 12.555-4.828 18.07-3.219 5.516-7.586 9.883-13.102 13.102C48.555 70.39 42.531 72 36 72c-6.531 0-12.555-1.61-18.07-4.828-5.516-3.219-9.883-7.586-13.102-13.102C1.61 48.555 0 42.531 0 36c0-6.531 1.61-12.555 4.828-18.07 3.219-5.516 7.586-9.883 13.102-13.102C23.445 1.61 29.469 0 36 0c6.531 0 12.555 1.61 18.07 4.828 5.516 3.219 9.883 7.586 13.102 13.102C70.39 23.445 72 29.469 72 36z"/>
        <path fill="#FFF" d="M26 19v10h.017l-.017.017 6.667 6.65L26 42.333l.017.017H26v9.983h20V42.35h-.017l.017-.017-6.667-6.666L46 29.017 45.983 29H46V19H26zm16.667 24.167V49H29.333v-5.833L36 36.5l6.667 6.667zM36 34.833l-6.667-6.666v-5.834h13.334v5.834L36 34.833z"/>
    </g>
</svg>
